<svg width="42" height="42" viewBox="0 0 42 42" fill="none" xmlns="http://www.w3.org/2000/svg">
<path d="M17.4844 24.4688C17.4844 26.2781 16.1719 26.85 14.5594 26.85H10.3312V21.8906H14.6437C16.3875 21.9 17.4844 22.6219 17.4844 24.4688ZM16.7625 16.7531C16.7625 15.0938 15.4781 14.7 14.0531 14.7H10.3406V18.9H14.3438C15.7594 18.9 16.7625 18.2812 16.7625 16.7531ZM29.1656 18.9281C27.45 18.9281 26.3062 19.9969 26.1937 21.7125H32.025C31.8656 19.9781 30.9656 18.9281 29.1656 18.9281ZM42 4.5V37.5C42 39.9844 39.9844 42 37.5 42H4.5C2.01562 42 0 39.9844 0 37.5V4.5C0 2.01562 2.01562 0 4.5 0H37.5C39.9844 0 42 2.01562 42 4.5ZM25.4719 14.3438H32.7656V12.5719H25.4719V14.3438ZM21.4406 24.6844C21.4406 22.425 20.3719 20.475 18.1594 19.8469C19.7719 19.0781 20.6156 18.1875 20.6156 16.3781C20.6156 12.7969 17.9438 11.925 14.8594 11.925H6.375V29.925H15.1031C18.375 29.9063 21.4406 28.3406 21.4406 24.6844ZM35.625 23.2969C35.625 19.4438 33.3656 16.2281 29.2875 16.2281C25.3125 16.2281 22.6219 19.2094 22.6219 23.1281C22.6219 27.1875 25.1812 29.9719 29.2875 29.9719C32.4 29.9719 34.4156 28.575 35.3906 25.5844H32.2312C31.8844 26.7 30.4875 27.2812 29.4 27.2812C27.3 27.2812 26.2031 26.0531 26.2031 23.9719H35.5969C35.6063 23.7563 35.625 23.5219 35.625 23.2969Z" fill="url(#paint0_linear_125_84)"/>
<defs>
<linearGradient id="paint0_linear_125_84" x1="0" y1="0" x2="44.6742" y2="40.8418" gradientUnits="userSpaceOnUse">
<stop stop-color="#2C9BFF"/>
<stop offset="0.994792" stop-color="#D982FF"/>
</linearGradient>
</defs>
</svg>
