<svg width="48" height="42" viewBox="0 0 48 42" fill="none" xmlns="http://www.w3.org/2000/svg">
<path d="M6 28.5V10.119L26.238 20.793C26.4685 20.9286 26.7311 21.0001 26.9985 21.0001C27.2659 21.0001 27.5285 20.9286 27.759 20.793L48 10.119V28.5C48 30.4891 47.2098 32.3968 45.8033 33.8033C44.3968 35.2098 42.4891 36 40.5 36H13.5C11.5109 36 9.60322 35.2098 8.1967 33.8033C6.79017 32.3968 6 30.4891 6 28.5ZM6.045 6.669C6.24947 4.83492 7.12297 3.14062 8.49838 1.91022C9.8738 0.67982 11.6546 -0.000290148 13.5 9.2858e-08H40.5C42.3454 -0.000290148 44.1262 0.67982 45.5016 1.91022C46.877 3.14062 47.7505 4.83492 47.955 6.669L27 17.76L6.045 6.669ZM34.5 42C36.954 42 39.132 40.821 40.5 39H13.5C10.7152 39 8.04451 37.8938 6.07538 35.9246C4.10625 33.9555 3 31.2848 3 28.5V7.5C1.179 8.868 0 11.046 0 13.5V28.5C0 32.0804 1.42232 35.5142 3.95406 38.0459C6.4858 40.5777 9.91958 42 13.5 42H34.5Z" fill="url(#paint0_linear_191_187)"/>
<defs>
<linearGradient id="paint0_linear_191_187" x1="0" y1="0" x2="48" y2="42" gradientUnits="userSpaceOnUse">
<stop stop-color="#2C9BFF"/>
<stop offset="1" stop-color="#D982FF"/>
</linearGradient>
</defs>
</svg>
