<svg width="20" height="20" viewBox="0 0 20 20" fill="none" xmlns="http://www.w3.org/2000/svg">
<g clip-path="url(#clip0_618_1766)">
<path d="M10.0688 6.49862C8.27849 6.49862 6.81747 7.95967 6.81747 9.75C6.81747 11.5403 8.27849 13.0014 10.0688 13.0014C11.8591 13.0014 13.3201 11.5403 13.3201 9.75C13.3201 7.95967 11.8591 6.49862 10.0688 6.49862ZM19.8203 9.75C19.8203 8.40359 19.8325 7.06938 19.7569 5.72541C19.6813 4.16435 19.3252 2.77891 18.1837 1.63739C17.0397 0.493433 15.6568 0.139757 14.0957 0.0641433C12.7494 -0.0114703 11.4152 0.00072551 10.0712 0.00072551C8.72484 0.00072551 7.39066 -0.0114703 6.04671 0.0641433C4.48568 0.139757 3.10027 0.495872 1.95877 1.63739C0.814835 2.78135 0.461165 4.16435 0.385553 5.72541C0.309941 7.07182 0.322137 8.40603 0.322137 9.75C0.322137 11.094 0.309941 12.4306 0.385553 13.7746C0.461165 15.3356 0.817274 16.7211 1.95877 17.8626C3.10271 19.0066 4.48568 19.3602 6.04671 19.4359C7.3931 19.5115 8.72728 19.4993 10.0712 19.4993C11.4176 19.4993 12.7518 19.5115 14.0957 19.4359C15.6568 19.3602 17.0422 19.0041 18.1837 17.8626C19.3276 16.7186 19.6813 15.3356 19.7569 13.7746C19.835 12.4306 19.8203 11.0964 19.8203 9.75ZM10.0688 14.7527C7.30041 14.7527 5.06619 12.5184 5.06619 9.75C5.06619 6.98157 7.30041 4.74731 10.0688 4.74731C12.8372 4.74731 15.0714 6.98157 15.0714 9.75C15.0714 12.5184 12.8372 14.7527 10.0688 14.7527ZM15.2763 5.71077C14.6299 5.71077 14.1079 5.18879 14.1079 4.54242C14.1079 3.89604 14.6299 3.37407 15.2763 3.37407C15.9226 3.37407 16.4446 3.89604 16.4446 4.54242C16.4448 4.6959 16.4147 4.84792 16.3561 4.98976C16.2974 5.13159 16.2114 5.26047 16.1028 5.369C15.9943 5.47753 15.8654 5.56358 15.7236 5.62223C15.5818 5.68087 15.4298 5.71096 15.2763 5.71077Z" fill="url(#paint0_linear_618_1766)"/>
</g>
<defs>
<linearGradient id="paint0_linear_618_1766" x1="0.321411" y1="0" x2="19.8214" y2="19.5" gradientUnits="userSpaceOnUse">
<stop stop-color="#2C9BFF"/>
<stop offset="1" stop-color="#D982FF"/>
</linearGradient>
<clipPath id="clip0_618_1766">
<rect width="19.5" height="19.5" fill="white" transform="translate(0.321411)"/>
</clipPath>
</defs>
</svg>
