<svg width="20" height="20" viewBox="0 0 20 20" fill="none" xmlns="http://www.w3.org/2000/svg">
<g clip-path="url(#clip0_618_1768)">
<path d="M8.22486 11.3605C8.22486 12.2006 7.61549 12.4661 6.86683 12.4661H4.90377V10.1635H6.906C7.7156 10.1679 8.22486 10.503 8.22486 11.3605ZM7.88971 7.77824C7.88971 7.00781 7.29339 6.825 6.63178 6.825H4.90812V8.775H6.76672C7.42397 8.775 7.88971 8.48772 7.88971 7.77824ZM13.6483 8.78806C12.8518 8.78806 12.3207 9.28426 12.2685 10.0808H14.9759C14.9019 9.27556 14.484 8.78806 13.6483 8.78806ZM19.6071 2.08929V17.4107C19.6071 18.5642 18.6713 19.5 17.5178 19.5H2.1964C1.04294 19.5 0.107117 18.5642 0.107117 17.4107V2.08929C0.107117 0.935826 1.04294 0 2.1964 0H17.5178C18.6713 0 19.6071 0.935826 19.6071 2.08929ZM11.9333 6.6596H15.3197V5.83694H11.9333V6.6596ZM10.0617 11.4606C10.0617 10.4116 9.56549 9.50625 8.53826 9.21462C9.28692 8.8577 9.67866 8.4442 9.67866 7.60413C9.67866 5.94141 8.43814 5.53661 7.00611 5.53661H3.06694V13.8938H7.11928C8.63837 13.885 10.0617 13.1581 10.0617 11.4606ZM16.6473 10.8164C16.6473 9.02746 15.5983 7.53449 13.7049 7.53449C11.8593 7.53449 10.6101 8.91864 10.6101 10.7381C10.6101 12.6228 11.7984 13.9155 13.7049 13.9155C15.15 13.9155 16.0858 13.267 16.5385 11.8785H15.0716C14.9106 12.3964 14.262 12.6663 13.7571 12.6663C12.7821 12.6663 12.2729 12.0961 12.2729 11.1298H16.6342C16.6386 11.0297 16.6473 10.9209 16.6473 10.8164Z" fill="url(#paint0_linear_618_1768)"/>
</g>
<defs>
<linearGradient id="paint0_linear_618_1768" x1="0.107117" y1="0" x2="20.8487" y2="18.9623" gradientUnits="userSpaceOnUse">
<stop stop-color="#2C9BFF"/>
<stop offset="0.994792" stop-color="#D982FF"/>
</linearGradient>
<clipPath id="clip0_618_1768">
<rect width="19.5" height="19.5" fill="white" transform="translate(0.107117)"/>
</clipPath>
</defs>
</svg>
