<svg width="23" height="20" viewBox="0 0 23 20" fill="none" xmlns="http://www.w3.org/2000/svg">
<path d="M2.92854 13.2321V4.69811L12.3247 9.65389C12.4318 9.71684 12.5537 9.75004 12.6778 9.75004C12.802 9.75004 12.9239 9.71684 13.0309 9.65389L22.4285 4.69811V13.2321C22.4285 14.1557 22.0617 15.0414 21.4086 15.6944C20.7556 16.3474 19.8699 16.7143 18.9464 16.7143H6.41068C5.48716 16.7143 4.60146 16.3474 3.94843 15.6944C3.2954 15.0414 2.92854 14.1557 2.92854 13.2321ZM2.94943 3.09632C3.04436 2.24479 3.44992 1.45814 4.0885 0.886888C4.72708 0.315631 5.55387 -0.000134712 6.41068 4.31127e-08H18.9464C19.8032 -0.000134712 20.63 0.315631 21.2686 0.886888C21.9072 1.45814 22.3127 2.24479 22.4076 3.09632L12.6785 8.24571L2.94943 3.09632ZM16.1607 19.5C17.3 19.5 18.3112 18.9526 18.9464 18.1071H6.41068C5.11775 18.1071 3.87777 17.5935 2.96353 16.6793C2.04929 15.765 1.53568 14.5251 1.53568 13.2321V3.48214C0.690215 4.11729 0.142822 5.1285 0.142822 6.26786V13.2321C0.142822 14.8945 0.803184 16.4887 1.97863 17.6642C3.15409 18.8396 4.74834 19.5 6.41068 19.5H16.1607Z" fill="url(#paint0_linear_618_1765)"/>
<defs>
<linearGradient id="paint0_linear_618_1765" x1="0.142822" y1="0" x2="22.4285" y2="19.5" gradientUnits="userSpaceOnUse">
<stop stop-color="#2C9BFF"/>
<stop offset="1" stop-color="#D982FF"/>
</linearGradient>
</defs>
</svg>
