<svg width="21" height="20" viewBox="0 0 21 20" fill="none" xmlns="http://www.w3.org/2000/svg">
<g clip-path="url(#clip0_618_1767)">
<path d="M18.7559 4.50926C15.8389 -0.000149065 9.88348 -1.34078 5.26495 1.46236C0.76797 4.26551 -0.690511 10.3593 2.22645 14.8687L2.46953 15.2343L1.49721 18.8906L5.14341 17.9156L5.50803 18.1594C7.08805 19.0125 8.78962 19.5 10.4912 19.5C12.3143 19.5 14.1374 19.0125 15.7174 18.0375C20.2144 15.1125 21.5513 9.14055 18.7559 4.50926ZM16.2036 13.8937C15.7174 14.625 15.1097 15.1125 14.2589 15.2343C13.7728 15.2343 13.1651 15.4781 10.7343 14.5031C8.66808 13.5281 6.96651 11.9437 5.75111 10.1156C5.02187 9.26242 4.65725 8.16554 4.53571 7.06866C4.53571 6.09365 4.90033 5.24052 5.50803 4.63114C5.75111 4.38738 5.99419 4.26551 6.23727 4.26551H6.84497C7.08805 4.26551 7.33113 4.26551 7.45267 4.75301C7.69576 5.36239 8.30345 6.8249 8.30345 6.94678C8.42499 7.06866 8.42499 7.31241 8.30345 7.43428C8.42499 7.67804 8.30346 7.92179 8.18192 8.04366C8.06038 8.16554 7.93884 8.40929 7.8173 8.53117C7.57421 8.65304 7.45267 8.89679 7.57421 9.14055C8.06038 9.8718 8.66808 10.6031 9.27578 11.2124C10.005 11.8218 10.7343 12.3093 11.585 12.6749C11.8281 12.7968 12.0712 12.7968 12.1927 12.5531C12.3143 12.3093 12.922 11.6999 13.1651 11.4562C13.4081 11.2124 13.5297 11.2124 13.7728 11.3343L15.7174 12.3093C15.9605 12.4312 16.2036 12.5531 16.3251 12.6749C16.4466 13.0406 16.4466 13.5281 16.2036 13.8937Z" fill="url(#paint0_linear_618_1767)"/>
</g>
<defs>
<linearGradient id="paint0_linear_618_1767" x1="0.714233" y1="0" x2="20.2142" y2="19.5" gradientUnits="userSpaceOnUse">
<stop stop-color="#2C9BFF"/>
<stop offset="1" stop-color="#D982FF"/>
</linearGradient>
<clipPath id="clip0_618_1767">
<rect width="19.5" height="19.5" fill="white" transform="translate(0.714233)"/>
</clipPath>
</defs>
</svg>
