<svg width="42" height="42" viewBox="0 0 42 42" fill="none" xmlns="http://www.w3.org/2000/svg">
<path d="M38.859 9.71225C32.5763 -0.000321063 19.7491 -2.88784 9.80155 3.1497C0.11574 9.18725 -3.0256 22.3123 3.25708 32.0249L3.78064 32.8124L1.68641 40.6875L9.53977 38.5875L10.3251 39.1125C13.7282 40.95 17.3931 42 21.058 42C24.9847 42 28.9114 40.95 32.3145 38.85C42.0003 32.5499 44.8799 19.6873 38.859 9.71225ZM33.3616 29.9249C32.3145 31.4999 31.0056 32.5499 29.1732 32.8124C28.1261 32.8124 26.8172 33.3374 21.5816 31.2374C17.1314 29.1374 13.4665 25.7249 10.8487 21.7873C9.27799 19.9498 8.49266 17.5873 8.23088 15.2248C8.23088 13.1248 9.01622 11.2873 10.3251 9.97476C10.8487 9.44975 11.3722 9.18725 11.8958 9.18725H13.2047C13.7282 9.18725 14.2518 9.18725 14.5136 10.2373C15.0371 11.5498 16.346 14.6998 16.346 14.9623C16.6078 15.2248 16.6078 15.7498 16.346 16.0123C16.6078 16.5373 16.346 17.0623 16.0842 17.3248C15.8225 17.5873 15.5607 18.1123 15.2989 18.3748C14.7753 18.6373 14.5136 19.1623 14.7753 19.6873C15.8225 21.2623 17.1314 22.8374 18.4402 24.1499C20.0109 25.4624 21.5816 26.5124 23.414 27.2999C23.9376 27.5624 24.4612 27.5624 24.7229 27.0374C24.9847 26.5124 26.2936 25.1999 26.8172 24.6749C27.3407 24.1499 27.6025 24.1499 28.1261 24.4124L32.3145 26.5124C32.8381 26.7749 33.3616 27.0374 33.6234 27.2999C33.8852 28.0874 33.8852 29.1374 33.3616 29.9249Z" fill="url(#paint0_linear_125_80)"/>
<defs>
<linearGradient id="paint0_linear_125_80" x1="0" y1="0" x2="42" y2="42" gradientUnits="userSpaceOnUse">
<stop stop-color="#2C9BFF"/>
<stop offset="1" stop-color="#D982FF"/>
</linearGradient>
</defs>
</svg>
