<svg width="53" height="58" viewBox="0 0 53 58" fill="none" xmlns="http://www.w3.org/2000/svg">
<path d="M5.49037 44.1555V43.0427H0.962181V49.0347H2.34889V46.8519H5.1223V45.7391H2.34889V44.1555H5.49037ZM8.06711 44.361C7.33095 44.361 6.58624 44.5578 6.08121 44.9174L6.56056 45.8504C6.8944 45.585 7.39943 45.4224 7.88735 45.4224C8.60638 45.4224 8.94878 45.7562 8.94878 46.3297H7.88735C6.48352 46.3297 5.91001 46.8947 5.91001 47.7079C5.91001 48.504 6.552 49.1031 7.63055 49.1031C8.30678 49.1031 8.78614 48.8806 9.03438 48.4612V49.0347H10.2841V46.4068C10.2841 45.0115 9.47093 44.361 8.06711 44.361ZM7.96439 48.2044C7.49359 48.2044 7.21111 47.9818 7.21111 47.648C7.21111 47.3398 7.40799 47.1087 8.03287 47.1087H8.94878V47.5795C8.7947 47.9989 8.4095 48.2044 7.96439 48.2044ZM12.1603 43.7874C12.6568 43.7874 12.9907 43.4622 12.9907 43.0171C12.9907 42.6062 12.6568 42.298 12.1603 42.298C11.6639 42.298 11.33 42.6233 11.33 43.0427C11.33 43.4622 11.6639 43.7874 12.1603 43.7874ZM11.4927 49.0347H12.828V44.4294H11.4927V49.0347ZM16.6781 47.8705C16.5326 47.9818 16.3357 48.0417 16.1388 48.0417C15.7793 48.0417 15.5653 47.8277 15.5653 47.434V45.5593H16.7123V44.5322H15.5653V43.4108H14.23V44.5322H13.5195V45.5593H14.23V47.4511C14.23 48.5468 14.8634 49.1031 15.9505 49.1031C16.3614 49.1031 16.7637 49.009 17.0376 48.8121L16.6781 47.8705ZM27.0593 49.0347L27.0422 43.0427H25.9037L23.6953 46.7663L21.4526 43.0427H20.3056V49.0347H21.6067V45.5165L23.3615 48.4012H23.9863L25.7497 45.4395L25.7582 49.0347H27.0593ZM30.2443 44.361C29.5081 44.361 28.7634 44.5578 28.2584 44.9174L28.7377 45.8504C29.0716 45.585 29.5766 45.4224 30.0645 45.4224C30.7836 45.4224 31.126 45.7562 31.126 46.3297H30.0645C28.6607 46.3297 28.0872 46.8947 28.0872 47.7079C28.0872 48.504 28.7292 49.1031 29.8077 49.1031C30.484 49.1031 30.9633 48.8806 31.2116 48.4612V49.0347H32.4613V46.4068C32.4613 45.0115 31.6481 44.361 30.2443 44.361ZM30.1416 48.2044C29.6708 48.2044 29.3883 47.9818 29.3883 47.648C29.3883 47.3398 29.5852 47.1087 30.21 47.1087H31.126V47.5795C30.9719 47.9989 30.5867 48.2044 30.1416 48.2044ZM34.3375 43.7874C34.834 43.7874 35.1678 43.4622 35.1678 43.0171C35.1678 42.6062 34.834 42.298 34.3375 42.298C33.8411 42.298 33.5072 42.6233 33.5072 43.0427C33.5072 43.4622 33.8411 43.7874 34.3375 43.7874ZM33.6699 49.0347H35.0052V44.4294H33.6699V49.0347ZM37.7939 49.1031C39.172 49.1031 39.9681 48.4954 39.9681 47.6394C39.9681 45.8247 37.1861 46.5865 37.1861 45.799C37.1861 45.5593 37.4429 45.371 38.0421 45.371C38.4615 45.371 38.9152 45.4566 39.3689 45.7134L39.814 44.7633C39.3774 44.5065 38.6755 44.361 38.0421 44.361C36.6982 44.361 35.9107 44.9773 35.9107 45.8504C35.9107 47.6908 38.6927 46.9204 38.6927 47.6736C38.6927 47.9304 38.4615 48.0931 37.8452 48.0931C37.2803 48.0931 36.6554 47.9133 36.2445 47.648L35.7994 48.6067C36.2274 48.8891 37.0149 49.1031 37.7939 49.1031ZM42.9833 49.1031C44.447 49.1031 45.5085 48.1188 45.5085 46.7321C45.5085 45.3453 44.447 44.361 42.9833 44.361C41.5196 44.361 40.4496 45.3453 40.4496 46.7321C40.4496 48.1188 41.5196 49.1031 42.9833 49.1031ZM42.9833 48.0075C42.3156 48.0075 41.802 47.5281 41.802 46.7321C41.802 45.936 42.3156 45.4566 42.9833 45.4566C43.651 45.4566 44.156 45.936 44.156 46.7321C44.156 47.5281 43.651 48.0075 42.9833 48.0075ZM49.2001 44.361C48.5753 44.361 48.036 44.575 47.6765 44.9687V44.4294H46.4011V49.0347H47.7364V46.7577C47.7364 45.9103 48.1986 45.5165 48.8406 45.5165C49.4313 45.5165 49.7737 45.8589 49.7737 46.6037V49.0347H51.109V46.3982C51.109 44.9944 50.2872 44.361 49.2001 44.361Z" fill="#231F20"/>
<path d="M21.9569 53.8175C21.6448 53.8175 21.3885 53.9153 21.2021 54.1203V52.9043H20.4753V56.3613H21.1695V56.0725C21.3512 56.2914 21.6215 56.3986 21.9569 56.3986C22.6604 56.3986 23.2055 55.8954 23.2055 55.1081C23.2055 54.3207 22.6604 53.8175 21.9569 53.8175ZM21.8311 55.8022C21.4677 55.8022 21.1928 55.5413 21.1928 55.1081C21.1928 54.6748 21.4677 54.4139 21.8311 54.4139C22.1945 54.4139 22.4694 54.6748 22.4694 55.1081C22.4694 55.5413 22.1945 55.8022 21.8311 55.8022ZM25.4129 53.8548L24.7047 55.5553L24.0012 53.8548H23.2511L24.3366 56.38L24.3273 56.4033C24.2295 56.6269 24.1177 56.7154 23.9173 56.7154C23.7729 56.7154 23.6192 56.6548 23.5073 56.557L23.2418 57.0742C23.4048 57.2186 23.6844 57.3024 23.9406 57.3024C24.3926 57.3024 24.7373 57.1207 24.9796 56.5151L26.1117 53.8548H25.4129ZM31.455 56.3613L31.4456 53.1H30.826L29.624 55.1267L28.4033 53.1H27.779V56.3613H28.4872V54.4465L29.4423 56.0166H29.7824L30.7421 54.4045L30.7468 56.3613H31.455Z" fill="#231F20"/>
<path fill-rule="evenodd" clip-rule="evenodd" d="M43.1355 19.2263C42.952 17.5677 42.9457 16.9957 42.5719 16.8334C42.9043 16.8334 36.9322 11.0876 30.7521 9.46491C30.4935 3.31083 21.4539 3.51814 21.2037 9.46491C17.2436 10.5029 9.35302 14.6478 8.86601 19.2263C1.61632 18.7322 1.44625 23.9348 8.70297 23.5672C8.9398 31.5246 12.5935 38.4714 13.2245 38.6309C25.8145 42.2396 38.5254 39.3189 39.0686 38.406C41.6772 33.8978 43.1341 28.8084 43.2985 23.5651C50.589 23.9481 50.3901 18.7322 43.1355 19.2263ZM8.68751 22.5777C2.74355 22.9101 3.03239 19.8419 8.77816 20.2094C8.93488 20.2087 8.68751 19.7843 8.68751 22.5777ZM29.7767 9.23089C27.2348 8.68625 24.6992 8.71436 22.1693 9.24213C22.3773 4.80349 29.4892 4.90399 29.7767 9.23089ZM43.3147 22.5777C43.3147 21.7885 43.2823 20.9986 43.224 20.2094C50.09 20.2087 48.0365 22.8413 43.3147 22.5777Z" fill="#231F20"/>
<path d="M8.25606 0.686035C3.45409 15.4876 18.4032 21.615 18.5093 21.3592C25.3339 6.33202 8.25606 0.686035 8.25606 0.686035ZM18.4833 11.7707L15.7236 14.7898L14.0159 11.3849L15.5683 6.86331C16.5072 7.83874 17.3449 8.973 17.9394 10.2766C18.1608 10.7629 18.3414 11.2612 18.4833 11.7707ZM9.27295 2.13724C10.8106 2.86178 13.1086 4.15276 15.0567 6.08394L13.5106 10.5865L9.27295 2.13724ZM12.8929 10.6702L8.48937 8.34824C8.14783 6.43181 8.21249 4.40364 8.68334 2.27709L12.8929 10.6702ZM8.73464 9.1009L13.2555 11.4847L15.0482 15.0582L10.9062 14.0673C10.6019 13.6288 10.3159 13.1671 10.053 12.6808C9.43599 11.5388 8.99747 10.3441 8.73464 9.1009ZM11.3412 14.7996L15.4551 15.7842L17.6449 20.1504C16.0005 19.2699 13.3595 17.5115 11.3412 14.7996ZM18.2606 19.8574L16.1776 15.704L18.8558 12.7728C19.3751 14.9465 19.177 17.319 18.2606 19.8574Z" fill="#231F20"/>
<path d="M43.1721 2.96094C31.1043 5.70171 33.001 18.4104 33.2182 18.3788C46.2642 16.9276 43.1721 2.96094 43.1721 2.96094ZM39.756 14.5389L36.415 13.8495L38.1262 11.1734L42.028 10.3561C41.73 11.4447 41.2753 12.529 40.5943 13.5115C40.3406 13.8783 40.061 14.2199 39.756 14.5389ZM42.5291 4.31516C42.6591 5.65462 42.7118 7.74042 42.1875 9.848L38.4987 10.6203L42.5291 4.31516ZM38.29 10.0328L38.0981 6.33489C39.193 5.38757 40.5135 4.6567 42.0519 4.1486L38.29 10.0328ZM37.7053 6.52815L37.9281 10.834L36.1107 13.6766L35.0411 10.2451C35.2281 9.83535 35.4389 9.42845 35.6785 9.02858C36.2407 8.08969 36.9175 7.25622 37.7053 6.52815ZM34.8162 11.0427L35.727 13.9648L33.8232 16.9431C33.7614 15.5945 33.8781 13.3014 34.8162 11.0427ZM33.98 17.5903L36.1262 14.2325L39.4608 14.9198C38.0876 16.2565 36.252 17.1511 33.98 17.5903Z" fill="#231F20"/>
<path fill-rule="evenodd" clip-rule="evenodd" d="M42.1953 19.7246C12.8606 27.8387 7.12889 11.0638 10.1494 27.9603C10.7615 31.3968 11.9583 34.7075 13.6878 37.7378C21.7393 40.0077 30.2638 40.0077 38.316 37.7378C43.1567 29.2533 42.4314 19.7246 42.1953 19.7246Z" fill="#F9F9F9"/>
<path fill-rule="evenodd" clip-rule="evenodd" d="M9.91675 18.7286C24.8666 22.9087 42.3028 20.0667 41.9683 17.9043C24.9762 22.6149 18.423 18.7286 9.91675 18.7286Z" fill="#F9F9F9"/>
<path fill-rule="evenodd" clip-rule="evenodd" d="M20.6936 10.6349C14.3912 12.576 10.8107 17.0294 10.5759 17.0294C20.6613 19.773 31.3025 19.7758 41.3899 17.0399C39.6724 15.3378 36.9218 12.9773 34.1184 11.8156L34.1248 11.8163C28.6594 9.10082 24.7626 9.58994 20.6936 10.6349Z" fill="#F9F9F9"/>
<path fill-rule="evenodd" clip-rule="evenodd" d="M29.653 27.0953V39.4C30.3572 39.3606 30.776 39.9882 30.9306 39.3431C31.1597 38.3866 30.9032 35.0162 30.9032 25.6357C19.5719 25.6357 19.2493 25.0777 29.653 27.0953Z" fill="#231F20"/>
<path d="M27.5511 33.6399C28.0296 33.6399 28.4176 33.4005 28.4176 33.1051C28.4176 32.8098 28.0296 32.5703 27.5511 32.5703C27.0725 32.5703 26.6846 32.8098 26.6846 33.1051C26.6846 33.4005 27.0725 33.6399 27.5511 33.6399Z" fill="#231F20"/>
</svg>
