<svg width="101" height="20" viewBox="0 0 101 20" fill="none" xmlns="http://www.w3.org/2000/svg">
<path d="M7.27105 4.92887L6.4634 8.96712H13.5573L13.246 10.4645C13.0841 11.2452 12.3959 11.8047 11.5991 11.8047H5.91778L4.56065 17.9961C4.4042 18.7799 3.71601 19.344 2.91683 19.344H0.732788L4.30248 2.09131H15.8492L15.5379 3.5887C15.3761 4.36937 14.6879 4.92887 13.891 4.92887H7.27105Z" fill="#231F20"/>
<path d="M14.3741 14.2582C14.3741 10.3509 17.3427 7.42627 21.4681 7.42627C25.0693 7.42627 27.3836 9.50011 27.3836 12.6868C27.3836 16.594 24.4366 19.5187 20.2897 19.5187C16.71 19.5187 14.3741 17.4232 14.3741 14.2582ZM23.9349 12.8394C23.9349 11.2457 22.9747 10.2415 21.2723 10.2415C19.264 10.2415 17.8236 11.8129 17.8236 14.1048C17.8236 15.6985 18.8062 16.7027 20.5086 16.7027C22.4938 16.7027 23.9349 15.1313 23.9349 12.8394Z" fill="#231F20"/>
<path d="M28.649 14.2582C28.649 10.3509 31.6176 7.42627 35.743 7.42627C39.3442 7.42627 41.6585 9.50011 41.6585 12.6868C41.6585 16.594 38.7115 19.5187 34.5646 19.5187C30.9841 19.5187 28.649 17.4232 28.649 14.2582ZM38.2091 12.8394C38.2091 11.2457 37.2488 10.2415 35.5464 10.2415C33.5381 10.2415 32.0977 11.8129 32.0977 14.1048C32.0977 15.6985 33.0803 16.7027 34.7827 16.7027C36.7687 16.7027 38.2091 15.1313 38.2091 12.8394Z" fill="#231F20"/>
<path d="M58.1414 2.09131L54.9147 17.9915C54.7575 18.7784 54.067 19.3448 53.2647 19.3448H51.4136L51.654 18.1657C50.7154 19.0173 49.5147 19.519 48.0528 19.519C45.3246 19.519 42.9888 17.5985 42.9888 14.2585C42.9888 10.3081 45.8479 7.42657 49.4715 7.42657C51.1739 7.42657 52.5056 7.99378 53.2693 9.15131L54.4662 3.44381C54.6234 2.65774 55.3139 2.09131 56.1154 2.09131H58.1414ZM52.5496 12.8397C52.5496 11.246 51.567 10.2418 49.8646 10.2418C47.8562 10.2418 46.4159 11.8132 46.4159 14.1051C46.4159 15.6988 47.3985 16.703 49.1009 16.703C51.1084 16.703 52.5496 15.1316 52.5496 12.8397Z" fill="#231F20"/>
<path d="M61.6432 7.60058H63.6462L61.58 17.9898C61.4236 18.7767 60.7331 19.3439 59.9301 19.3439H57.9271L59.9933 8.95462C60.1497 8.16778 60.841 7.60058 61.6432 7.60058ZM60.8757 4.85395C60.8757 3.89448 61.6324 3.1377 62.7761 3.1377C63.7911 3.1377 64.4739 3.76501 64.4739 4.57651C64.4739 5.62846 63.6986 6.34749 62.5549 6.34749C61.54 6.34826 60.8757 5.68395 60.8757 4.85395Z" fill="#231F20"/>
<path d="M79.7876 14.2582C79.7876 10.3509 82.7562 7.42627 86.8815 7.42627C90.4828 7.42627 92.7971 9.50011 92.7971 12.6868C92.7971 16.594 89.8501 19.5187 85.7032 19.5187C82.1227 19.5187 79.7876 17.4232 79.7876 14.2582ZM89.3476 12.8394C89.3476 11.2457 88.3874 10.2415 86.685 10.2415C84.6767 10.2415 83.2363 11.8129 83.2363 14.1048C83.2363 15.6985 84.2189 16.7027 85.9213 16.7027C87.9072 16.7027 89.3476 15.1313 89.3476 12.8394Z" fill="#231F20"/>
<path d="M72.3053 7.42795C74.5194 7.47881 77.004 8.59626 77.6475 10.7541C78.0051 11.9525 77.619 13.2564 77.3848 14.4432C77.1489 15.6347 76.8869 16.8207 76.628 18.0075C76.4584 18.7859 75.7695 19.34 74.9734 19.34H72.9357L74.2019 13.6949C74.5395 12.3078 73.7103 10.8427 72.2807 10.8427C70.556 10.8427 69.356 11.7521 68.9414 13.6957L68.0444 17.9921C67.8802 18.7774 67.1882 19.3392 66.3867 19.3392C65.7108 19.3392 65.0357 19.34 64.3599 19.3431C64.7113 17.6546 65.0627 15.9661 65.4134 14.2776C65.7193 12.8056 66.0044 11.2473 66.9416 9.99655C68.1476 8.38819 70.2176 7.3794 72.3053 7.42795Z" fill="#231F20"/>
<path d="M95.1861 12.1973C95.1861 13.9668 94.7276 15.5813 93.9092 16.9377C98.1039 15.8803 100.918 12.3183 100.918 7.80767C100.918 3.42802 97.7386 0.528809 92.8649 0.528809C88.7519 0.528809 85.5082 2.6774 84.0486 5.93343C85.1152 5.53346 86.2981 5.31382 87.5705 5.31382C92.179 5.31382 95.1861 8.05583 95.1861 12.1973Z" fill="#231F20"/>
</svg>
