<svg width="226" height="43" viewBox="0 0 226 43" fill="none" xmlns="http://www.w3.org/2000/svg">
<path d="M14.8921 9.98652L13.0772 19.0607H29.0176L28.318 22.4254C27.9544 24.1796 26.408 25.4369 24.6174 25.4369H11.8512L8.80162 39.3495C8.45008 41.1106 6.90366 42.3782 5.10787 42.3782H0.200195L8.22149 3.61035H34.1678L33.4682 6.97507C33.1045 8.7293 31.5581 9.98652 29.7675 9.98652H14.8921Z" fill="#231F20"/>
<path d="M30.8533 30.9503C30.8533 22.1705 37.5238 15.5986 46.7937 15.5986C54.886 15.5986 60.0863 20.2587 60.0863 27.4193C60.0863 36.1991 53.4643 42.771 44.1459 42.771C36.1021 42.771 30.8533 38.0624 30.8533 30.9503ZM52.3369 27.7622C52.3369 24.181 50.1792 21.9246 46.3538 21.9246C41.841 21.9246 38.6044 25.4555 38.6044 30.6057C38.6044 34.1868 40.8124 36.4433 44.6377 36.4433C49.0986 36.4433 52.3369 32.9123 52.3369 27.7622Z" fill="#231F20"/>
<path d="M62.9297 30.9503C62.9297 22.1705 69.6003 15.5986 78.8701 15.5986C86.9624 15.5986 92.1628 20.2587 92.1628 27.4193C92.1628 36.1991 85.5407 42.771 76.2223 42.771C68.1768 42.771 62.9297 38.0624 62.9297 30.9503ZM84.4116 27.7622C84.4116 24.181 82.2539 21.9246 78.4285 21.9246C73.9157 21.9246 70.6791 25.4555 70.6791 30.6057C70.6791 34.1868 72.887 36.4433 76.7124 36.4433C81.175 36.4433 84.4116 32.9123 84.4116 27.7622Z" fill="#231F20"/>
<path d="M129.201 3.61035L121.95 39.3391C121.597 41.1072 120.045 42.38 118.243 42.38H114.083L114.623 39.7304C112.514 41.644 109.816 42.7713 106.531 42.7713C100.401 42.7713 95.1519 38.4559 95.1519 30.9506C95.1519 22.0739 101.577 15.599 109.719 15.599C113.544 15.599 116.537 16.8735 118.253 19.4746L120.942 6.64951C121.296 4.88316 122.847 3.61035 124.648 3.61035H129.201ZM116.635 27.7626C116.635 24.1814 114.428 21.925 110.602 21.925C106.089 21.925 102.853 25.4559 102.853 30.606C102.853 34.1872 105.061 36.4436 108.886 36.4436C113.397 36.4436 116.635 32.9127 116.635 27.7626Z" fill="#231F20"/>
<path d="M137.07 15.9903H141.57L136.928 39.3355C136.576 41.1036 135.024 42.3781 133.22 42.3781H128.719L133.362 19.0329C133.714 17.2648 135.267 15.9903 137.07 15.9903ZM135.345 9.81844C135.345 7.66246 137.045 5.96191 139.615 5.96191C141.896 5.96191 143.43 7.37153 143.43 9.19502C143.43 11.5588 141.688 13.1745 139.118 13.1745C136.838 13.1762 135.345 11.6835 135.345 9.81844Z" fill="#231F20"/>
<path d="M177.841 30.9503C177.841 22.1705 184.512 15.5986 193.781 15.5986C201.874 15.5986 207.074 20.2587 207.074 27.4193C207.074 36.1991 200.452 42.771 191.134 42.771C183.088 42.771 177.841 38.0624 177.841 30.9503ZM199.323 27.7622C199.323 24.181 197.165 21.9246 193.34 21.9246C188.827 21.9246 185.59 25.4555 185.59 30.6057C185.59 34.1868 187.798 36.4433 191.624 36.4433C196.086 36.4433 199.323 32.9123 199.323 27.7622Z" fill="#231F20"/>
<path d="M161.028 15.6019C166.003 15.7162 171.586 18.2272 173.032 23.076C173.836 25.7688 172.968 28.6989 172.442 31.3657C171.912 34.0429 171.323 36.708 170.741 39.3749C170.36 41.1239 168.812 42.369 167.023 42.369H162.444L165.29 29.6842C166.048 26.5671 164.185 23.2751 160.972 23.2751C157.097 23.2751 154.401 25.3186 153.469 29.6859L151.453 39.3403C151.084 41.1049 149.529 42.3673 147.728 42.3673C146.21 42.3673 144.693 42.369 143.174 42.3759C143.963 38.5818 144.753 34.7876 145.541 30.9934C146.229 27.6858 146.869 24.1843 148.975 21.3737C151.685 17.7596 156.337 15.4928 161.028 15.6019Z" fill="#231F20"/>
<path d="M212.443 26.3197C212.443 30.2958 211.412 33.9237 209.573 36.9715C218.999 34.5956 225.323 26.5916 225.323 16.4559C225.323 6.61456 218.178 0.0998535 207.227 0.0998535C197.984 0.0998535 190.696 4.92787 187.416 12.2444C189.812 11.3456 192.471 10.8521 195.33 10.8521C205.685 10.8521 212.443 17.0135 212.443 26.3197Z" fill="#231F20"/>
</svg>
