<svg width="84" height="36" viewBox="0 0 84 36" fill="none" xmlns="http://www.w3.org/2000/svg">
<path d="M24.1088 1.23193L20.3573 27.6809L9.33304 16.5186L0.995117 29.2102L7.57303 7.20761L16.8833 18.2319L24.1088 1.23193Z" fill="#231F20"/>
<path d="M27.9069 21.289L33.3731 23.0957L39.1167 19.2048L39.6729 4.84521L43.7024 21.0115L33.7439 28.237L23.9701 24.2067L26.7959 9.47633L27.9069 21.289Z" fill="#231F20"/>
<path d="M63.064 7.39314L55.4677 16.2406L70.1514 35.232L52.0857 19.7146L44.6748 27.6817L51.901 0.815918L51.4374 15.4069L63.064 7.39314Z" fill="#231F20"/>
<path d="M77.6556 16.7035L74.2743 13.6003L68.4373 19.6227L81.004 31.2829L61.3966 20.1027L74.0889 8.45898L83.3992 16.9816L71.4485 21.9842L77.6556 16.7035Z" fill="#231F20"/>
</svg>
