<svg width="186" height="79" viewBox="0 0 186 79" fill="none" xmlns="http://www.w3.org/2000/svg">
<path d="M52.0684 1.70337L43.6387 61.1358L18.8664 36.0534L0.130615 64.5722L14.9116 15.1311L35.8323 39.9033L52.0684 1.70337Z" fill="#231F20"/>
<path d="M60.6029 46.773L72.8857 50.8328L85.7918 42.0899L87.0417 9.823L96.0963 46.1497L73.7189 62.3857L51.7566 53.3295L58.1063 20.2294L60.6029 46.773Z" fill="#231F20"/>
<path d="M139.603 15.5475L122.534 35.4282L155.529 78.103L114.934 43.2345L98.2815 61.1371L114.519 0.768066L113.478 33.555L139.603 15.5475Z" fill="#231F20"/>
<path d="M172.391 36.4683L164.793 29.4953L151.677 43.0279L179.915 69.229L135.856 44.1065L164.377 17.9424L185.298 37.0933L158.444 48.3344L172.391 36.4683Z" fill="#231F20"/>
</svg>
