<svg width="257" height="77" viewBox="0 0 257 77" fill="none" xmlns="http://www.w3.org/2000/svg">
<path d="M83.4243 52.2063C85.1836 52.2063 86.4725 51.8658 87.2912 51.183C88.1098 50.5001 88.5191 49.6441 88.5191 48.6129C88.5191 47.6742 88.2003 46.9225 87.5647 46.3617C86.9271 45.8008 85.957 45.3226 84.6523 44.9291L81.7418 44.0199C80.5886 43.6558 79.5417 43.2465 78.603 42.792C77.6624 42.3374 76.8595 41.7982 76.1924 41.1763C75.5253 40.5545 75.0097 39.8264 74.6456 38.992C74.2816 38.1576 74.1005 37.1658 74.1005 36.0126C74.1005 33.5567 75.0254 31.6085 76.8752 30.1681C78.725 28.7276 81.2577 28.0073 84.4732 28.0073C85.7464 28.0073 86.9212 28.1057 87.9996 28.3025C89.076 28.4993 90.0088 28.7728 90.7979 29.1211C91.587 29.4695 92.201 29.9024 92.6398 30.418C93.0787 30.9336 93.2991 31.5101 93.2991 32.1477C93.2991 32.7538 93.1554 33.2773 92.8662 33.7181C92.5769 34.1589 92.2207 34.5151 91.7976 34.7866C91.0695 34.2711 90.1072 33.8244 88.9088 33.4446C87.7103 33.0648 86.3997 32.8758 84.973 32.8758C83.3948 32.8758 82.1983 33.1572 81.3797 33.7181C80.561 34.2789 80.1517 35.0444 80.1517 36.0146C80.1517 36.8037 80.4312 37.4098 80.994 37.8349C81.5548 38.2599 82.4423 38.6693 83.6545 39.0628L86.2482 39.8815C88.8871 40.6706 90.9337 41.747 92.3899 43.1107C93.8462 44.4745 94.5743 46.3263 94.5743 48.6601C94.5743 49.9038 94.3302 51.0413 93.8462 52.0724C93.3601 53.1036 92.6556 53.9911 91.7307 54.733C90.8058 55.4769 89.6526 56.0515 88.2731 56.4628C86.8937 56.8721 85.3233 57.0767 83.564 57.0767C82.1688 57.0767 80.8877 56.9547 79.7208 56.7127C78.5538 56.4687 77.5443 56.144 76.6961 55.7347C75.846 55.3253 75.1868 54.8412 74.7165 54.2784C74.2461 53.7176 74.012 53.1036 74.012 52.4365C74.012 51.7399 74.2166 51.1397 74.6259 50.6398C75.0353 50.14 75.5135 49.7681 76.0586 49.526C76.8162 50.1931 77.8178 50.8071 79.0615 51.3679C80.2993 51.9268 81.7555 52.2063 83.4243 52.2063Z" fill="#231F20"/>
<path d="M106.936 35.8706C109.686 35.8706 111.88 36.459 113.521 37.6378C115.162 38.8165 115.983 40.6388 115.983 43.1065V52.8238C115.983 53.4968 115.815 54.0301 115.477 54.4217C115.14 54.8153 114.719 55.1656 114.216 55.4726C113.43 55.9508 112.435 56.3286 111.228 56.6081C110.022 56.8875 108.648 57.0292 107.106 57.0292C104.301 57.0292 102.091 56.488 100.48 55.4096C98.8661 54.3312 98.0613 52.7117 98.0613 50.5509C98.0613 48.6716 98.6575 47.2351 99.8501 46.2393C101.043 45.2436 102.774 44.6335 105.045 44.4092L110.809 43.8208V43.0632C110.809 41.9986 110.423 41.2114 109.652 40.7076C108.881 40.2039 107.794 39.95 106.391 39.95C105.297 39.95 104.231 40.0838 103.193 40.3495C102.156 40.6171 101.23 40.9457 100.417 41.3374C100.108 41.113 99.8481 40.8119 99.6395 40.4321C99.4289 40.0543 99.3247 39.6391 99.3247 39.1904C99.3247 38.6296 99.4565 38.175 99.7241 37.8227C99.9898 37.4725 100.419 37.1576 101.007 36.8762C101.82 36.5397 102.747 36.2878 103.784 36.1186C104.819 35.9552 105.87 35.8706 106.936 35.8706ZM107.104 52.9931C107.916 52.9931 108.66 52.9163 109.333 52.7609C110.006 52.6074 110.496 52.4184 110.805 52.1921V47.5224L106.724 47.9002C105.602 48.0124 104.746 48.2584 104.158 48.6362C103.569 49.014 103.274 49.6103 103.274 50.425C103.274 51.2377 103.575 51.8694 104.179 52.3181C104.784 52.7687 105.758 52.9931 107.104 52.9931Z" fill="#231F20"/>
<path d="M126.371 37.8044H133.985C134.125 38.0288 134.251 38.3161 134.363 38.6663C134.475 39.0166 134.53 39.4023 134.53 39.8235C134.53 40.5535 134.363 41.0849 134.024 41.4214C133.688 41.7579 133.239 41.9251 132.678 41.9251H126.621V56.3556C126.369 56.4107 126.033 56.4815 125.612 56.5661C125.19 56.6507 124.714 56.6921 124.181 56.6921C123.199 56.6921 122.471 56.509 121.993 56.145C121.514 55.7809 121.278 55.1355 121.278 54.2106V35.6161C121.278 34.2701 121.489 33.1209 121.91 32.1665C122.331 31.214 122.92 30.4288 123.677 29.8109C124.435 29.195 125.332 28.7384 126.369 28.4432C127.406 28.1481 128.542 28.0024 129.778 28.0024C133.507 28.0024 135.372 28.9844 135.372 30.9464C135.372 31.3951 135.282 31.7945 135.099 32.1448C134.916 32.4951 134.699 32.7824 134.447 33.0067C133.914 32.7824 133.318 32.6014 132.659 32.4597C131.999 32.32 131.305 32.2491 130.577 32.2491C129.118 32.2491 128.052 32.5305 127.379 33.0914C126.706 33.6522 126.369 34.5633 126.369 35.8267V37.8044H126.371Z" fill="#231F20"/>
<path d="M145.428 35.8706C148.177 35.8706 150.371 36.459 152.013 37.6378C153.654 38.8165 154.474 40.6388 154.474 43.1065V52.8238C154.474 53.4968 154.307 54.0301 153.969 54.4217C153.632 54.8153 153.211 55.1656 152.707 55.4726C151.922 55.9508 150.926 56.3286 149.72 56.6081C148.514 56.8875 147.14 57.0292 145.597 57.0292C142.793 57.0292 140.583 56.488 138.971 55.4096C137.358 54.3312 136.553 52.7117 136.553 50.5509C136.553 48.6716 137.149 47.2351 138.342 46.2393C139.534 45.2436 141.266 44.6335 143.537 44.4092L149.301 43.8208V43.0632C149.301 41.9986 148.915 41.2114 148.144 40.7076C147.372 40.2039 146.286 39.95 144.883 39.95C143.789 39.95 142.722 40.0838 141.685 40.3495C140.648 40.6171 139.721 40.9457 138.909 41.3374C138.6 41.113 138.34 40.8119 138.131 40.4321C137.921 40.0543 137.816 39.6391 137.816 39.1904C137.816 38.6296 137.948 38.175 138.216 37.8227C138.481 37.4725 138.91 37.1576 139.499 36.8762C140.312 36.5397 141.238 36.2878 142.276 36.1186C143.311 35.9552 144.363 35.8706 145.428 35.8706ZM145.597 52.9931C146.41 52.9931 147.154 52.9163 147.827 52.7609C148.5 52.6074 148.99 52.4184 149.299 52.1921V47.5224L145.218 47.9002C144.096 48.0124 143.24 48.2584 142.651 48.6362C142.063 49.014 141.768 49.6103 141.768 50.425C141.768 51.2377 142.069 51.8694 142.673 52.3181C143.275 52.7687 144.251 52.9931 145.597 52.9931Z" fill="#231F20"/>
<path d="M165.032 56.3581C164.78 56.4132 164.444 56.4841 164.022 56.5687C163.601 56.6533 163.125 56.6946 162.592 56.6946C161.61 56.6946 160.88 56.5116 160.404 56.1476C159.927 55.7835 159.689 55.138 159.689 54.2131V40.8769C159.689 40.1488 159.856 39.5308 160.195 39.0251C160.531 38.5194 161.021 38.0727 161.667 37.6791C162.537 37.1458 163.609 36.7109 164.884 36.3744C166.16 36.0379 167.541 35.8706 169.029 35.8706C171.693 35.8706 173.025 36.6991 173.025 38.3521C173.025 38.7457 172.963 39.1176 172.837 39.4679C172.711 39.8182 172.577 40.1055 172.437 40.3298C171.792 40.1901 170.993 40.1192 170.04 40.1192C169.058 40.1192 168.133 40.2314 167.264 40.4557C166.394 40.6801 165.65 40.9615 165.034 41.298V56.3581H165.032Z" fill="#231F20"/>
<path d="M191.913 50.7643C191.913 52.7282 191.183 54.2631 189.725 55.3711C188.267 56.479 186.135 57.0319 183.331 57.0319C182.18 57.0319 181.137 56.9473 180.196 56.7801C179.256 56.6108 178.443 56.3668 177.756 56.0441C177.069 55.7213 176.536 55.3297 176.158 54.8653C175.78 54.4029 175.59 53.8912 175.59 53.3304C175.59 52.7971 175.708 52.3346 175.948 51.943C176.186 51.5514 176.501 51.2287 176.894 50.9748C177.679 51.4806 178.583 51.9292 179.608 52.3209C180.631 52.7144 181.816 52.9092 183.162 52.9092C184.311 52.9092 185.181 52.7203 185.769 52.3405C186.358 51.9627 186.653 51.4353 186.653 50.7623C186.653 49.6131 185.811 48.8554 184.128 48.4914L181.773 47.9443C179.697 47.4681 178.162 46.7518 177.166 45.7993C176.17 44.8469 175.672 43.5697 175.672 41.9718C175.672 40.1496 176.4 38.6697 177.861 37.5343C179.319 36.3988 181.365 35.8301 184.002 35.8301C185.012 35.8301 185.945 35.9068 186.801 36.0623C187.657 36.2178 188.398 36.4401 189.03 36.7353C189.662 37.0305 190.152 37.3808 190.502 37.7861C190.852 38.1935 191.028 38.6638 191.028 39.1951C191.028 39.6989 190.915 40.1417 190.691 40.5195C190.467 40.8974 190.199 41.2004 189.892 41.4247C189.64 41.2575 189.31 41.0882 188.904 40.921C188.497 40.7517 188.048 40.5982 187.558 40.4585C187.066 40.3188 186.549 40.1988 186.002 40.1004C185.455 40.002 184.915 39.9528 184.382 39.9528C183.288 39.9528 182.432 40.1279 181.816 40.4782C181.198 40.8285 180.891 41.3263 180.891 41.9718C180.891 42.448 181.066 42.8416 181.416 43.1506C181.767 43.4595 182.377 43.7114 183.247 43.9082L185.309 44.4139C187.637 44.9472 189.319 45.7245 190.357 46.7478C191.394 47.7711 191.913 49.1093 191.913 50.7643Z" fill="#231F20"/>
<path d="M205.627 56.9898C204.814 56.9898 204.063 56.9131 203.376 56.7576C202.689 56.6022 202.065 56.4132 201.504 56.1889V67.3349C201.253 67.39 200.916 67.4609 200.495 67.5455C200.074 67.6301 199.598 67.6714 199.064 67.6714C198.082 67.6714 197.354 67.4884 196.876 67.1244C196.4 66.7603 196.162 66.1149 196.162 65.19V40.4558C196.162 39.7828 196.295 39.2357 196.561 38.8146C196.827 38.3934 197.256 38.0018 197.844 37.6358C198.657 37.1596 199.666 36.7463 200.873 36.3941C202.079 36.0438 203.439 35.8687 204.954 35.8687C206.497 35.8687 207.92 36.0713 209.224 36.4787C210.529 36.886 211.657 37.5158 212.611 38.3718C213.564 39.2278 214.307 40.3141 214.841 41.6326C215.374 42.951 215.64 44.5214 215.64 46.3436C215.64 48.1108 215.388 49.6536 214.882 50.9701C214.378 52.2886 213.684 53.3965 212.8 54.2938C211.916 55.1912 210.866 55.8642 209.645 56.3129C208.423 56.7635 207.085 56.9898 205.627 56.9898ZM204.828 52.7412C206.511 52.7412 207.829 52.2217 208.782 51.1846C209.734 50.1475 210.212 48.5339 210.212 46.3476C210.212 44.0766 209.72 42.463 208.74 41.5105C207.758 40.5581 206.497 40.0799 204.954 40.0799C204.196 40.0799 203.529 40.1783 202.955 40.3751C202.38 40.5719 201.882 40.7824 201.461 41.0068V51.8183C201.91 52.0997 202.408 52.322 202.955 52.4913C203.502 52.6566 204.126 52.7412 204.828 52.7412Z" fill="#231F20"/>
<path d="M239.618 46.4302C239.618 48.0576 239.372 49.5217 238.882 50.8264C238.39 52.1311 237.698 53.2449 236.8 54.1718C235.903 55.0967 234.823 55.8051 233.561 56.2971C232.3 56.7871 230.883 57.0331 229.312 57.0331C227.742 57.0331 226.325 56.7871 225.064 56.2971C223.802 55.8071 222.722 55.1046 221.825 54.1935C220.927 53.2823 220.233 52.1744 219.743 50.8697C219.251 49.565 219.007 48.0871 219.007 46.4322C219.007 44.8067 219.253 43.3406 219.743 42.0359C220.233 40.7312 220.935 39.6233 221.846 38.7122C222.757 37.8011 223.844 37.1005 225.107 36.6085C226.369 36.1185 227.772 35.8726 229.314 35.8726C230.857 35.8726 232.258 36.1185 233.522 36.6085C234.783 37.1005 235.871 37.807 236.783 38.7338C237.694 39.6587 238.394 40.7745 238.886 42.0792C239.372 43.38 239.618 44.8303 239.618 46.4302ZM229.31 40.0779C227.795 40.0779 226.605 40.6328 225.735 41.7388C224.865 42.8467 224.43 44.4092 224.43 46.4302C224.43 48.4768 224.857 50.0471 225.713 51.1413C226.569 52.2354 227.768 52.7825 229.31 52.7825C230.853 52.7825 232.052 52.2295 232.908 51.1216C233.764 50.0137 234.191 48.4512 234.191 46.4302C234.191 44.4092 233.756 42.8487 232.886 41.7388C232.018 40.6309 230.826 40.0779 229.31 40.0779Z" fill="#231F20"/>
<path d="M250.113 52.1504C250.66 52.544 251.424 52.7388 252.406 52.7388C252.882 52.7388 253.366 52.6837 253.856 52.5715C254.346 52.4594 254.789 52.3197 255.18 52.1504C255.405 52.3748 255.593 52.6483 255.749 52.971C255.902 53.2937 255.981 53.6657 255.981 54.0868C255.981 54.9291 255.603 55.6217 254.846 56.1688C254.088 56.7159 252.868 56.9894 251.185 56.9894C248.97 56.9894 247.224 56.4915 245.949 55.4958C244.672 54.5001 244.034 52.8529 244.034 50.5525V31.2437C244.259 31.1886 244.587 31.1178 245.022 31.0332C245.457 30.9486 245.927 30.9072 246.431 30.9072C247.413 30.9072 248.135 31.0902 248.598 31.4543C249.06 31.8184 249.292 32.4638 249.292 33.3887V36.8797H255.475C255.615 37.1041 255.741 37.3992 255.853 37.7633C255.965 38.1274 256.02 38.5209 256.02 38.9421C256.02 39.6721 255.853 40.2035 255.517 40.54C255.18 40.8765 254.732 41.0457 254.171 41.0457H249.29V50.216C249.294 51.1133 249.566 51.7588 250.113 52.1504Z" fill="#231F20"/>
<path d="M52.7116 57.9359L36.3389 76.2135L34.8807 74.586C31.1969 70.4732 31.1969 63.745 34.8807 59.6322C40.2019 53.6931 40.2019 43.9738 34.8807 38.0348C29.5596 32.0957 29.5596 22.3764 34.8807 16.4374L35.6246 15.6069L54.9708 37.2063L52.7116 34.6796L54.9727 37.2043C60.7268 43.6235 58.4657 51.5127 52.7116 57.9359Z" fill="#231F20"/>
<path d="M5.80931 18.9353L22.182 0.657715L23.6402 2.28711C27.3241 6.39997 27.3241 13.1281 23.6402 17.239C18.3191 23.1781 18.3191 32.8974 23.6402 38.8384C28.9613 44.7774 28.9613 54.4967 23.6402 60.4358L22.8963 61.2662L3.55019 39.6669L5.80931 42.1936L3.54822 39.6688C-2.20584 33.2457 0.0552495 25.3585 5.80931 18.9353Z" fill="#231F20"/>
</svg>
