<svg width="114" height="34" viewBox="0 0 114 34" fill="none" xmlns="http://www.w3.org/2000/svg">
<path d="M37.0366 22.9405C37.8196 22.9405 38.3932 22.789 38.7575 22.4852C39.1218 22.1813 39.304 21.8003 39.304 21.3414C39.304 20.9237 39.1621 20.5891 38.8792 20.3396C38.5955 20.09 38.1637 19.8772 37.5831 19.702L36.2879 19.2974C35.7747 19.1354 35.3088 18.9532 34.891 18.7509C34.4724 18.5486 34.1151 18.3087 33.8182 18.0319C33.5214 17.7552 33.2919 17.4312 33.1299 17.0599C32.9679 16.6885 32.8873 16.2472 32.8873 15.734C32.8873 14.641 33.2989 13.774 34.1221 13.133C34.9453 12.4919 36.0724 12.1714 37.5034 12.1714C38.07 12.1714 38.5929 12.2152 39.0728 12.3027C39.5518 12.3903 39.9669 12.5121 40.3181 12.6671C40.6693 12.8221 40.9425 13.0147 41.1378 13.2442C41.3331 13.4736 41.4312 13.7302 41.4312 14.014C41.4312 14.2837 41.3672 14.5167 41.2385 14.7128C41.1098 14.909 40.9513 15.0675 40.763 15.1884C40.4389 14.9589 40.0107 14.7601 39.4774 14.5911C38.944 14.4221 38.3608 14.338 37.7259 14.338C37.0235 14.338 36.491 14.4632 36.1267 14.7128C35.7624 14.9624 35.5803 15.3031 35.5803 15.7348C35.5803 16.086 35.7046 16.3557 35.9551 16.5449C36.2047 16.7341 36.5996 16.9162 37.1391 17.0914L38.2933 17.4557C39.4677 17.8069 40.3785 18.2859 41.0266 18.8928C41.6746 19.4997 41.9987 20.3238 41.9987 21.3624C41.9987 21.9159 41.8901 22.4221 41.6746 22.881C41.4583 23.3399 41.1448 23.7349 40.7332 24.065C40.3216 24.3961 39.8084 24.6518 39.1945 24.8348C38.5806 25.017 37.8817 25.108 37.0988 25.108C36.4779 25.108 35.9078 25.0537 35.3885 24.946C34.8691 24.8374 34.4199 24.6929 34.0424 24.5108C33.6641 24.3286 33.3707 24.1132 33.1614 23.8627C32.9521 23.6131 32.8479 23.3399 32.8479 23.043C32.8479 22.733 32.939 22.4659 33.1211 22.2434C33.3033 22.021 33.5161 21.8555 33.7587 21.7478C34.0959 22.0446 34.5416 22.3179 35.0951 22.5675C35.6459 22.8162 36.294 22.9405 37.0366 22.9405Z" fill="#231F20"/>
<path d="M47.5002 15.6709C48.7236 15.6709 49.7001 15.9327 50.4305 16.4573C51.1608 16.9819 51.526 17.7929 51.526 18.8911V23.2155C51.526 23.515 51.4516 23.7524 51.301 23.9266C51.1512 24.1018 50.9638 24.2577 50.7396 24.3943C50.3902 24.6071 49.9471 24.7752 49.4102 24.8996C48.8734 25.024 48.2621 25.087 47.5755 25.087C46.3276 25.087 45.3441 24.8462 44.6268 24.3663C43.9087 23.8864 43.5505 23.1656 43.5505 22.204C43.5505 21.3677 43.8159 20.7284 44.3466 20.2853C44.8773 19.8421 45.648 19.5706 46.6586 19.4708L49.2237 19.2089V18.8718C49.2237 18.398 49.052 18.0477 48.7087 17.8235C48.3654 17.5993 47.882 17.4863 47.2576 17.4863C46.7707 17.4863 46.296 17.5459 45.8345 17.6641C45.373 17.7832 44.9605 17.9295 44.5988 18.1037C44.4613 18.0039 44.3457 17.8699 44.2529 17.7009C44.1592 17.5328 44.1128 17.348 44.1128 17.1483C44.1128 16.8987 44.1714 16.6964 44.2905 16.5396C44.4088 16.3838 44.5997 16.2436 44.8615 16.1184C45.2232 15.9687 45.6357 15.8566 46.0972 15.7812C46.5579 15.7086 47.0255 15.6709 47.5002 15.6709ZM47.5746 23.2908C47.9363 23.2908 48.2674 23.2567 48.5669 23.1875C48.8664 23.1192 49.0844 23.0351 49.2219 22.9344V20.8562L47.4056 21.0244C46.9064 21.0743 46.5255 21.1838 46.2636 21.3519C46.0018 21.5201 45.8704 21.7854 45.8704 22.148C45.8704 22.5097 46.0044 22.7908 46.2733 22.9905C46.5421 23.191 46.9756 23.2908 47.5746 23.2908Z" fill="#231F20"/>
<path d="M56.1491 16.5316H59.5374C59.5996 16.6314 59.6557 16.7593 59.7056 16.9151C59.7555 17.071 59.78 17.2427 59.78 17.4301C59.78 17.755 59.7056 17.9915 59.555 18.1412C59.4052 18.291 59.2055 18.3654 58.9559 18.3654H56.2604V24.7873C56.1483 24.8118 55.9985 24.8434 55.8111 24.881C55.6237 24.9187 55.4118 24.9371 55.1744 24.9371C54.7374 24.9371 54.4134 24.8556 54.2006 24.6936C53.9878 24.5316 53.8827 24.2443 53.8827 23.8327V15.5577C53.8827 14.9587 53.9764 14.4473 54.1638 14.0225C54.3512 13.5987 54.6131 13.2492 54.9502 12.9743C55.2874 12.7001 55.6867 12.497 56.1483 12.3656C56.6098 12.2342 57.1151 12.1694 57.6651 12.1694C59.3246 12.1694 60.1548 12.6064 60.1548 13.4796C60.1548 13.6792 60.1146 13.857 60.0331 14.0129C59.9517 14.1688 59.8553 14.2966 59.7432 14.3965C59.5059 14.2966 59.2406 14.2161 58.9472 14.153C58.6538 14.0908 58.3447 14.0593 58.0206 14.0593C57.3717 14.0593 56.897 14.1845 56.5975 14.4341C56.298 14.6837 56.1483 15.0892 56.1483 15.6514V16.5316H56.1491Z" fill="#231F20"/>
<path d="M64.63 15.6709C65.8534 15.6709 66.8298 15.9327 67.5602 16.4573C68.2906 16.9819 68.6558 17.7929 68.6558 18.8911V23.2155C68.6558 23.515 68.5814 23.7524 68.4307 23.9266C68.281 24.1018 68.0936 24.2577 67.8694 24.3943C67.5199 24.6071 67.0768 24.7752 66.54 24.8996C66.0031 25.024 65.3919 25.087 64.7053 25.087C63.4573 25.087 62.4738 24.8462 61.7566 24.3663C61.0385 23.8864 60.6803 23.1656 60.6803 22.204C60.6803 21.3677 60.9456 20.7284 61.4764 20.2853C62.0071 19.8421 62.7777 19.5706 63.7884 19.4708L66.3534 19.2089V18.8718C66.3534 18.398 66.1818 18.0477 65.8385 17.8235C65.4952 17.5993 65.0118 17.4863 64.3874 17.4863C63.9004 17.4863 63.4258 17.5459 62.9643 17.6641C62.5027 17.7832 62.0903 17.9295 61.7286 18.1037C61.5911 18.0039 61.4755 17.8699 61.3826 17.7009C61.2889 17.5328 61.2425 17.348 61.2425 17.1483C61.2425 16.8987 61.3012 16.6964 61.4203 16.5396C61.5385 16.3838 61.7294 16.2436 61.9913 16.1184C62.353 15.9687 62.7655 15.8566 63.227 15.7812C63.6876 15.7086 64.1562 15.6709 64.63 15.6709ZM64.7053 23.2908C65.067 23.2908 65.398 23.2567 65.6975 23.1875C65.997 23.1192 66.2151 23.0351 66.3526 22.9344V20.8562L64.5362 21.0244C64.0371 21.0743 63.6561 21.1838 63.3943 21.3519C63.1324 21.5201 63.001 21.7854 63.001 22.148C63.001 22.5097 63.135 22.7908 63.4039 22.9905C63.6719 23.191 64.1062 23.2908 64.7053 23.2908Z" fill="#231F20"/>
<path d="M73.3541 24.7884C73.242 24.8129 73.0923 24.8444 72.9048 24.8821C72.7174 24.9197 72.5055 24.9381 72.2682 24.9381C71.8312 24.9381 71.5063 24.8567 71.2943 24.6947C71.0824 24.5327 70.9764 24.2454 70.9764 23.8338V17.8988C70.9764 17.5748 71.0509 17.2998 71.2015 17.0747C71.3513 16.8497 71.5693 16.6509 71.8566 16.4757C72.2437 16.2384 72.7209 16.0448 73.2884 15.8951C73.8559 15.7453 74.4707 15.6709 75.1328 15.6709C76.3185 15.6709 76.9114 16.0396 76.9114 16.7752C76.9114 16.9504 76.8834 17.1159 76.8274 17.2718C76.7713 17.4277 76.7118 17.5555 76.6496 17.6554C76.3623 17.5932 76.0068 17.5617 75.5829 17.5617C75.1459 17.5617 74.7343 17.6116 74.3472 17.7114C73.9601 17.8112 73.6291 17.9365 73.355 18.0862V24.7884H73.3541Z" fill="#231F20"/>
<path d="M85.317 22.2989C85.317 23.1729 84.9921 23.856 84.3432 24.3491C83.6942 24.8421 82.7458 25.0882 81.4978 25.0882C80.9855 25.0882 80.5214 25.0506 80.1028 24.9761C79.6841 24.9008 79.3225 24.7922 79.0168 24.6486C78.7112 24.505 78.4739 24.3307 78.3057 24.124C78.1376 23.9182 78.0526 23.6905 78.0526 23.4409C78.0526 23.2036 78.1052 22.9978 78.212 22.8235C78.318 22.6492 78.4581 22.5056 78.6332 22.3926C78.9827 22.6177 79.3846 22.8174 79.8409 22.9917C80.2963 23.1668 80.8235 23.2535 81.4225 23.2535C81.934 23.2535 82.321 23.1694 82.5829 23.0004C82.8447 22.8323 82.9761 22.5976 82.9761 22.2981C82.9761 21.7866 82.6013 21.4495 81.8525 21.2874L80.8042 21.044C79.8803 20.832 79.1972 20.5133 78.7541 20.0894C78.311 19.6655 78.0894 19.0972 78.0894 18.3861C78.0894 17.5751 78.4134 16.9165 79.0632 16.4112C79.7122 15.9059 80.623 15.6528 81.7965 15.6528C82.2457 15.6528 82.6608 15.687 83.0418 15.7562C83.4227 15.8254 83.7529 15.9243 84.034 16.0557C84.3151 16.187 84.5332 16.3429 84.6891 16.5233C84.845 16.7046 84.9229 16.9139 84.9229 17.1504C84.9229 17.3746 84.873 17.5716 84.7732 17.7398C84.6733 17.9079 84.5542 18.0428 84.4176 18.1426C84.3055 18.0682 84.1584 17.9928 83.978 17.9184C83.7967 17.8431 83.597 17.7748 83.379 17.7126C83.16 17.6504 82.9297 17.597 82.6862 17.5532C82.4428 17.5094 82.2028 17.4875 81.9655 17.4875C81.4786 17.4875 81.0976 17.5655 80.8235 17.7214C80.5485 17.8773 80.4119 18.0988 80.4119 18.3861C80.4119 18.598 80.4898 18.7731 80.6457 18.9106C80.8016 19.0481 81.0731 19.1602 81.4602 19.2478L82.378 19.4729C83.414 19.7102 84.1628 20.0561 84.6243 20.5115C85.0858 20.9669 85.317 21.5624 85.317 22.2989Z" fill="#231F20"/>
<path d="M91.4201 25.0694C91.0585 25.0694 90.7239 25.0352 90.4183 24.9661C90.1126 24.8969 89.835 24.8128 89.5854 24.713V29.6732C89.4733 29.6978 89.3236 29.7293 89.1362 29.7669C88.9488 29.8046 88.7368 29.823 88.4995 29.823C88.0625 29.823 87.7385 29.7416 87.5257 29.5795C87.3137 29.4175 87.2078 29.1303 87.2078 28.7187V17.7113C87.2078 17.4118 87.2673 17.1683 87.3855 16.9809C87.5038 16.7935 87.6947 16.6192 87.9565 16.4564C88.3182 16.2444 88.7675 16.0605 89.3043 15.9037C89.8412 15.7479 90.4463 15.6699 91.1206 15.6699C91.8072 15.6699 92.4404 15.7601 93.021 15.9414C93.6017 16.1227 94.1035 16.4029 94.5282 16.7839C94.9521 17.1648 95.2831 17.6483 95.5204 18.235C95.7578 18.8218 95.876 19.5206 95.876 20.3316C95.876 21.118 95.7639 21.8046 95.5388 22.3905C95.3146 22.9772 95.0055 23.4703 94.6123 23.8696C94.2191 24.269 93.7514 24.5685 93.2084 24.7681C92.6646 24.9687 92.0691 25.0694 91.4201 25.0694ZM91.0646 23.1786C91.8134 23.1786 92.4001 22.9474 92.824 22.4859C93.2479 22.0244 93.4607 21.3063 93.4607 20.3333C93.4607 19.3227 93.2417 18.6046 92.8056 18.1807C92.3686 17.7568 91.8072 17.544 91.1206 17.544C90.7835 17.544 90.4866 17.5878 90.2309 17.6754C89.9751 17.763 89.7536 17.8567 89.5662 17.9565V22.7679C89.7658 22.8932 89.9874 22.9921 90.2309 23.0674C90.4743 23.141 90.7519 23.1786 91.0646 23.1786Z" fill="#231F20"/>
<path d="M106.547 20.3703C106.547 21.0946 106.438 21.7461 106.22 22.3267C106.001 22.9074 105.692 23.403 105.293 23.8155C104.894 24.2271 104.413 24.5424 103.851 24.7613C103.29 24.9794 102.66 25.0889 101.961 25.0889C101.262 25.0889 100.631 24.9794 100.07 24.7613C99.5086 24.5433 99.0278 24.2306 98.6285 23.8252C98.2291 23.4197 97.92 22.9266 97.7019 22.346C97.483 21.7654 97.3744 21.1077 97.3744 20.3712C97.3744 19.6478 97.4839 18.9954 97.7019 18.4147C97.92 17.8341 98.2326 17.3411 98.6381 16.9356C99.0436 16.5301 99.527 16.2183 100.089 15.9994C100.651 15.7813 101.275 15.6719 101.962 15.6719C102.648 15.6719 103.272 15.7813 103.834 15.9994C104.395 16.2183 104.88 16.5327 105.285 16.9452C105.691 17.3568 106.002 17.8534 106.221 18.434C106.438 19.0129 106.547 19.6583 106.547 20.3703ZM101.96 17.5434C101.286 17.5434 100.756 17.7903 100.369 18.2825C99.9815 18.7756 99.788 19.4709 99.788 20.3703C99.788 21.2811 99.978 21.9799 100.359 22.4669C100.74 22.9538 101.273 23.1972 101.96 23.1972C102.646 23.1972 103.18 22.9512 103.561 22.4581C103.942 21.9651 104.132 21.2697 104.132 20.3703C104.132 19.4709 103.938 18.7764 103.551 18.2825C103.165 17.7895 102.634 17.5434 101.96 17.5434Z" fill="#231F20"/>
<path d="M111.217 22.9157C111.461 23.0908 111.801 23.1775 112.238 23.1775C112.45 23.1775 112.665 23.153 112.883 23.1031C113.101 23.0532 113.298 22.991 113.472 22.9157C113.572 23.0155 113.656 23.1373 113.726 23.2809C113.794 23.4245 113.829 23.59 113.829 23.7774C113.829 24.1523 113.661 24.4605 113.324 24.704C112.986 24.9474 112.443 25.0692 111.695 25.0692C110.709 25.0692 109.932 24.8476 109.364 24.4045C108.796 23.9613 108.512 23.2283 108.512 22.2046V13.6117C108.612 13.5871 108.758 13.5556 108.952 13.518C109.145 13.4803 109.355 13.4619 109.579 13.4619C110.016 13.4619 110.337 13.5434 110.543 13.7054C110.749 13.8674 110.852 14.1546 110.852 14.5662V16.1198H113.604C113.666 16.2197 113.722 16.351 113.772 16.513C113.822 16.6751 113.846 16.8502 113.846 17.0376C113.846 17.3625 113.772 17.599 113.622 17.7487C113.472 17.8985 113.273 17.9738 113.023 17.9738H110.851V22.0548C110.853 22.4542 110.974 22.7414 111.217 22.9157Z" fill="#231F20"/>
<path d="M23.3687 25.4903L16.0824 33.6243L15.4335 32.9001C13.7941 31.0698 13.7941 28.0755 15.4335 26.2452C17.8015 23.6022 17.8015 19.2768 15.4335 16.6338C13.0655 13.9908 13.0655 9.66543 15.4335 7.0224L15.7645 6.65283L24.3741 16.2651L23.3687 15.1406L24.375 16.2642C26.9357 19.121 25.9294 22.6319 23.3687 25.4903Z" fill="#231F20"/>
<path d="M2.49599 8.13401L9.78227 0L10.4312 0.725125C12.0706 2.55545 12.0706 5.54966 10.4312 7.37911C8.06316 10.0221 8.06316 14.3475 10.4312 16.9914C12.7992 19.6344 12.7992 23.9598 10.4312 26.6028L10.1002 26.9724L1.49062 17.3601L2.49599 18.4846L1.48974 17.361C-1.07096 14.5025 -0.064722 10.9925 2.49599 8.13401Z" fill="#231F20"/>
</svg>
