<svg width="90" height="46" viewBox="0 0 90 46" fill="none" xmlns="http://www.w3.org/2000/svg">
<path d="M45.8721 43.1886V43.9653H43.6289V35.373H45.8721V38.4449C46.3087 37.9153 46.8523 37.4561 47.8085 37.4561C49.3316 37.4561 50.642 38.7152 50.642 40.7518V40.775C50.642 42.8465 49.3316 44.1063 47.8202 44.1063C46.8516 44.107 46.2853 43.6717 45.8721 43.1886ZM48.4345 40.7874V40.7641C48.4345 39.9285 47.8559 39.3284 47.1241 39.3284C46.4041 39.3284 45.8254 39.9285 45.8254 40.7641V40.7874C45.8254 41.6352 46.4041 42.2354 47.1241 42.2354C47.8559 42.2354 48.4345 41.6469 48.4345 40.7874Z" fill="#231F20"/>
<path d="M51.5735 39.128C52.3649 39.0452 52.7898 38.6572 52.7541 38.0215H51.857V35.7256H54.1832V37.5972C54.1832 39.3395 53.2387 39.9396 51.7629 39.9868L51.5735 39.128Z" fill="#231F20"/>
<path d="M55.1388 40.8106V40.7874C55.1388 38.7159 56.4375 37.4561 57.949 37.4561C58.9168 37.4561 59.4838 37.8913 59.9087 38.3745V35.373H62.1519V43.966H59.9087V43.1188C59.4721 43.6485 58.9168 44.1077 57.9606 44.1077C56.4498 44.107 55.1388 42.8471 55.1388 40.8106ZM59.9444 40.7874V40.7641C59.9444 39.9285 59.3657 39.3284 58.6457 39.3284C57.9256 39.3284 57.3353 39.9169 57.3353 40.7641V40.7874C57.3353 41.6352 57.9256 42.2354 58.6457 42.2354C59.3657 42.2354 59.9444 41.6352 59.9444 40.7874Z" fill="#231F20"/>
<path d="M63.3318 42.1409V42.117C63.3318 40.7983 64.3353 40.116 65.8351 40.116C66.4255 40.116 67.0041 40.2337 67.37 40.3631V40.257C67.37 39.598 66.9567 39.221 66.0946 39.221C65.4219 39.221 64.9023 39.3503 64.3353 39.5741L63.8747 37.9967C64.5948 37.7025 65.3622 37.502 66.4605 37.502C67.6054 37.502 68.3852 37.7723 68.8931 38.2787C69.377 38.7495 69.5782 39.4085 69.5782 40.3035V43.9639H67.3583V43.305C66.921 43.7874 66.3191 44.1056 65.481 44.1056C64.2646 44.107 63.3318 43.4124 63.3318 42.1409ZM67.3933 41.6585V41.3642C67.1688 41.2705 66.8503 41.2 66.5195 41.2C65.8701 41.2 65.4926 41.5175 65.4926 41.9883V42.0116C65.4926 42.4468 65.8235 42.7062 66.2834 42.7062C66.9334 42.7062 67.3933 42.2942 67.3933 41.6585Z" fill="#231F20"/>
<path d="M71.017 37.597H73.2602V38.8801C73.626 38.009 74.2163 37.4444 75.2796 37.491V39.845H75.0908C73.9219 39.845 73.2609 40.5163 73.2609 41.9876V43.9653H71.0177V37.597H71.017Z" fill="#231F20"/>
<path d="M76.3647 35.373H78.7027V37.0209H76.3647V35.373ZM76.4121 37.5971H78.6553V43.9653H76.4121V37.5971Z" fill="#231F20"/>
<path d="M79.2922 45.802V44.3191C79.387 44.3307 79.4927 44.3307 79.5874 44.3307C80.0239 44.3307 80.2484 44.1426 80.2484 43.5889V37.5971H82.4916V43.6827C82.4916 45.2949 81.6652 45.8835 80.2127 45.8835C79.8592 45.8841 79.5641 45.8369 79.2922 45.802ZM80.2017 35.373H82.5397V37.0209H80.2017V35.373Z" fill="#231F20"/>
<path d="M83.7429 42.1409V42.117C83.7429 40.7983 84.7465 40.116 86.2463 40.116C86.8366 40.116 87.4152 40.2337 87.7811 40.3631V40.257C87.7811 39.598 87.3679 39.221 86.5057 39.221C85.8331 39.221 85.3134 39.3503 84.7465 39.5741L84.2859 37.9967C85.0059 37.7025 85.7733 37.502 86.8716 37.502C88.0165 37.502 88.7963 37.7723 89.3043 38.2787C89.7882 38.7495 89.9893 39.4085 89.9893 40.3035V43.9639H87.7694V43.305C87.3329 43.7874 86.7302 44.1056 85.8921 44.1056C84.6758 44.107 83.7429 43.4124 83.7429 42.1409ZM87.8051 41.6585V41.3642C87.5807 41.2705 87.2622 41.2 86.9313 41.2C86.282 41.2 85.9044 41.5175 85.9044 41.9883V42.0116C85.9044 42.4468 86.2353 42.7062 86.6952 42.7062C87.3445 42.7062 87.8051 42.2942 87.8051 41.6585Z" fill="#231F20"/>
<path d="M15.6053 28.5079L17.9302 25.7399C19.4149 26.9203 21.0726 27.5423 22.8161 27.5423C23.9357 27.5423 24.5383 27.1557 24.5383 26.5124V26.4693C24.5383 25.8473 24.0434 25.5038 21.9986 25.0316C18.7917 24.3021 16.3165 23.4009 16.3165 20.3112V20.2681C16.3165 17.4788 18.5336 15.4614 22.1496 15.4614C24.7106 15.4614 26.7122 16.1478 28.3479 17.4569L26.2606 20.3967C24.8829 19.4311 23.3762 18.9159 22.0419 18.9159C21.0301 18.9159 20.5352 19.3449 20.5352 19.8814V19.9245C20.5352 20.6109 21.052 20.9113 23.1394 21.3835C26.6045 22.1349 28.7571 23.2503 28.7571 26.0615V26.1046C28.7571 29.1731 26.3244 30.9968 22.6658 30.9968C19.9963 30.9975 17.4566 30.1605 15.6053 28.5079Z" fill="#231F20"/>
<path d="M31.3174 15.7197H37.7745C41.5841 15.7197 44.038 17.6721 44.038 20.9985V21.0417C44.038 24.5823 41.3047 26.4491 37.5596 26.4491H35.4935V30.7405H31.3181V15.7197H31.3174ZM37.4731 23.187C38.9579 23.187 39.8619 22.4144 39.8619 21.2346V21.1915C39.8619 19.9043 38.9579 19.2173 37.4512 19.2173H35.4928V23.187H37.4731Z" fill="#231F20"/>
<path d="M60.9972 23.2726V23.2302C60.9972 18.8526 64.3764 15.4194 68.939 15.4194C72.0169 15.4194 73.9972 16.7066 75.3316 18.5522L72.1892 20.9768C71.3284 19.9038 70.3379 19.2174 68.8958 19.2174C66.7864 19.2174 65.301 20.9987 65.301 23.1871V23.2302C65.301 25.483 66.7864 27.243 68.8958 27.243C70.467 27.243 71.3923 26.5136 72.2963 25.4193L75.4387 27.6509C74.0178 29.6033 72.1027 31.041 68.766 31.041C64.4629 31.0403 60.9972 27.7576 60.9972 23.2726Z" fill="#231F20"/>
<path d="M77.7635 15.7197H89.8815V19.2604H81.8964V21.535H89.1285V24.8184H81.8964V27.1998H89.9893V30.7405H77.7635V15.7197Z" fill="#231F20"/>
<path d="M54.0665 15.7202H50.0421L43.6289 30.7375H48.0199L49.0969 28.0584H54.9081L56.005 30.7375H60.4797L54.0665 15.7202ZM55.4174 22.304C53.6499 22.5093 52.2448 23.9094 52.0395 25.6763C52.0347 25.7058 51.9908 25.7058 51.986 25.6763C51.7808 23.9094 50.3757 22.5086 48.6034 22.304C48.5738 22.2992 48.5738 22.2554 48.6034 22.2506C50.3757 22.0453 51.7808 20.65 51.986 18.8831C51.9908 18.8489 52.0347 18.8489 52.0395 18.8831C52.2455 20.65 53.6499 22.046 55.4174 22.2506C55.4517 22.2547 55.4517 22.2992 55.4174 22.304Z" fill="#231F20"/>
<path d="M18.9921 9.3568C14.2709 9.90357 10.5245 13.6379 9.97605 18.3453C9.96575 18.4336 9.84838 18.4336 9.83808 18.3453C9.28963 13.6379 5.54387 9.90357 0.822026 9.3568C0.733478 9.34653 0.733478 9.22951 0.822026 9.21925C5.54318 8.67248 9.28963 4.93817 9.83808 0.230758C9.84838 0.142482 9.96575 0.142482 9.97605 0.230758C10.5245 4.93817 14.2703 8.67248 18.9921 9.21925C19.0807 9.22951 19.0807 9.34653 18.9921 9.3568Z" fill="#231F20"/>
</svg>
