<svg width="202" height="103" viewBox="0 0 202 103" fill="none" xmlns="http://www.w3.org/2000/svg">
<path d="M102.067 96.7461V98.4914H97.0264V79.1841H102.067V86.0868C103.048 84.8966 104.27 83.8648 106.418 83.8648C109.841 83.8648 112.785 86.6942 112.785 91.2704V91.3227C112.785 95.9773 109.841 98.8082 106.444 98.8082C104.268 98.8097 102.996 97.8317 102.067 96.7461ZM107.825 91.3504V91.2981C107.825 89.4205 106.525 88.072 104.88 88.072C103.262 88.072 101.962 89.4205 101.962 91.2981V91.3504C101.962 93.2556 103.262 94.6041 104.88 94.6041C106.525 94.6041 107.825 93.2817 107.825 91.3504Z" fill="#231F20"/>
<path d="M114.878 87.6215C116.657 87.4355 117.612 86.5636 117.531 85.1351H115.515V79.9761H120.743V84.1817C120.743 88.0967 118.62 89.4452 115.304 89.5513L114.878 87.6215Z" fill="#231F20"/>
<path d="M122.89 91.4026V91.3503C122.89 86.6957 125.808 83.8648 129.204 83.8648C131.379 83.8648 132.653 84.8428 133.608 85.9284V79.1841H138.648V98.493H133.608V96.5893C132.627 97.7795 131.379 98.8113 129.231 98.8113C125.836 98.8097 122.89 95.9788 122.89 91.4026ZM133.688 91.3503V91.2981C133.688 89.4205 132.388 88.072 130.77 88.072C129.152 88.072 127.825 89.3944 127.825 91.2981V91.3503C127.825 93.2556 129.152 94.6041 130.77 94.6041C132.388 94.6041 133.688 93.2556 133.688 91.3503Z" fill="#231F20"/>
<path d="M141.3 94.3923V94.3385C141.3 91.3754 143.555 89.8423 146.925 89.8423C148.251 89.8423 149.552 90.1068 150.374 90.3974V90.159C150.374 88.6782 149.445 87.831 147.508 87.831C145.996 87.831 144.829 88.1216 143.555 88.6244L142.52 85.08C144.138 84.4188 145.862 83.9683 148.33 83.9683C150.903 83.9683 152.655 84.5756 153.796 85.7135C154.884 86.7715 155.336 88.2523 155.336 90.2636V98.4887H150.348V97.0079C149.365 98.092 148.012 98.807 146.129 98.807C143.396 98.8101 141.3 97.2494 141.3 94.3923ZM150.426 93.3082V92.647C149.922 92.4364 149.206 92.278 148.463 92.278C147.004 92.278 146.155 92.9915 146.155 94.0494V94.1017C146.155 95.0797 146.899 95.6625 147.932 95.6625C149.393 95.6625 150.426 94.7368 150.426 93.3082Z" fill="#231F20"/>
<path d="M158.569 84.1814H163.609V87.0645C164.432 85.1071 165.758 83.8385 168.147 83.943V89.2327H167.723C165.096 89.2327 163.611 90.7412 163.611 94.0472V98.4912H158.57V84.1814H158.569Z" fill="#231F20"/>
<path d="M170.586 79.1841H175.839V82.8869H170.586V79.1841ZM170.692 84.1816H175.733V98.4914H170.692V84.1816Z" fill="#231F20"/>
<path d="M177.164 102.619V99.2864C177.377 99.3125 177.614 99.3125 177.827 99.3125C178.808 99.3125 179.313 98.8897 179.313 97.6457V84.1816H184.353V97.8564C184.353 101.479 182.496 102.802 179.232 102.802C178.438 102.803 177.775 102.697 177.164 102.619ZM179.208 79.1841H184.461V82.8869H179.208V79.1841Z" fill="#231F20"/>
<path d="M187.165 94.3923V94.3385C187.165 91.3754 189.42 89.8423 192.79 89.8423C194.117 89.8423 195.417 90.1068 196.239 90.3974V90.159C196.239 88.6782 195.311 87.831 193.373 87.831C191.862 87.831 190.694 88.1216 189.42 88.6244L188.385 85.08C190.003 84.4188 191.727 83.9683 194.195 83.9683C196.768 83.9683 198.52 84.5756 199.662 85.7135C200.749 86.7715 201.201 88.2523 201.201 90.2636V98.4887H196.213V97.0079C195.232 98.092 193.878 98.807 191.994 98.807C189.261 98.8101 187.165 97.2494 187.165 94.3923ZM196.293 93.3082V92.647C195.789 92.4364 195.073 92.278 194.33 92.278C192.87 92.278 192.022 92.9915 192.022 94.0494V94.1017C192.022 95.0797 192.766 95.6625 193.799 95.6625C195.258 95.6625 196.293 94.7368 196.293 93.3082Z" fill="#231F20"/>
<path d="M34.0557 63.7581L39.2798 57.5381C42.6161 60.1907 46.341 61.5884 50.2587 61.5884C52.7744 61.5884 54.1286 60.7196 54.1286 59.2742V59.1773C54.1286 57.7795 53.0166 57.0076 48.4217 55.9466C41.2156 54.3074 35.6536 52.2823 35.6536 45.3396V45.2427C35.6536 38.975 40.6356 34.4419 48.761 34.4419C54.5158 34.4419 59.0135 35.9842 62.689 38.9258L57.9986 45.5318C54.9029 43.3621 51.5173 42.2042 48.5189 42.2042C46.2454 42.2042 45.1333 43.1683 45.1333 44.3739V44.4708C45.1333 46.0131 46.2947 46.6881 50.9852 47.7491C58.7713 49.4375 63.6083 51.944 63.6083 58.2608V58.3577C63.6083 65.2528 58.142 69.3507 49.9209 69.3507C43.9225 69.3523 38.2156 67.4717 34.0557 63.7581Z" fill="#231F20"/>
<path d="M69.3616 35.0215H83.8711C92.4315 35.0215 97.9456 39.4085 97.9456 46.8833V46.9802C97.9456 54.9362 91.8037 59.1311 83.3883 59.1311H78.7456V68.774H69.3631V35.0215H69.3616ZM83.1939 51.8008C86.5302 51.8008 88.5615 50.0648 88.5615 47.4138V47.3169C88.5615 44.4245 86.5302 42.8807 83.1446 42.8807H78.7441V51.8008H83.1939V51.8008Z" fill="#231F20"/>
<path d="M136.054 51.9933V51.898C136.054 42.0613 143.647 34.3467 153.9 34.3467C160.816 34.3467 165.266 37.2391 168.264 41.3863L161.203 46.8343C159.269 44.4232 157.043 42.8809 153.803 42.8809C149.063 42.8809 145.725 46.8835 145.725 51.8011V51.898C145.725 56.9601 149.063 60.915 153.803 60.915C157.333 60.915 159.412 59.2758 161.444 56.8171L168.505 61.8315C165.312 66.2186 161.009 69.4493 153.511 69.4493C143.842 69.4477 136.054 62.0714 136.054 51.9933Z" fill="#231F20"/>
<path d="M173.729 35.0215H200.959V42.9775H183.016V48.0888H199.267V55.4667H183.016V60.8179H201.201V68.774H173.729V35.0215V35.0215Z" fill="#231F20"/>
<path d="M120.48 35.0229H111.437L97.0264 68.7677H106.893L109.313 62.7476H122.371L124.836 68.7677H134.891L120.48 35.0229ZM123.516 49.8171C119.544 50.2785 116.387 53.4246 115.926 57.3949C115.915 57.461 115.816 57.461 115.805 57.3949C115.344 53.4246 112.187 50.2769 108.204 49.8171C108.138 49.8064 108.138 49.708 108.204 49.6972C112.187 49.2359 115.344 46.1005 115.805 42.1302C115.816 42.0533 115.915 42.0533 115.926 42.1302C116.388 46.1005 119.544 49.2374 123.516 49.6972C123.593 49.7064 123.593 49.8064 123.516 49.8171Z" fill="#231F20"/>
<path d="M41.666 20.7244C31.0572 21.953 22.6387 30.3442 21.4064 40.922C21.3832 41.1204 21.1195 41.1204 21.0963 40.922C19.8639 30.3442 11.447 21.953 0.836729 20.7244C0.637757 20.7013 0.637757 20.4384 0.836729 20.4153C11.4454 19.1867 19.8639 10.7954 21.0963 0.21762C21.1195 0.0192569 21.3832 0.0192569 21.4064 0.21762C22.6387 10.7954 31.0557 19.1867 41.666 20.4153C41.8649 20.4384 41.8649 20.7013 41.666 20.7244Z" fill="#231F20"/>
</svg>
